Patient4_TMGait_0pt4_01_left_01_EMG.mot
version=1
nRows=30
nColumns=33
inDegrees=no
endheader
time	1LAddLong	2LGlutMax	3LGlutMed	4LIliopsoas	5LSemiMemb	6LBicFemLong	7LRecFem	8LVastMed	9LVastLat	10LGasMed	11LTibAnt	12lTibPost	13LPeroneusLong	14LSol	15LExtDigLong	16LFlexDigLong	17RAddLong	18RGlutMax	19RGlutMed	20RIliopsoas	21RSemiMemb	22RBicFemLong	23RRecFem	24RVastMed	25RVastLat	26RGasMed	27RTibAnt	28RTibPost	29RPeroneusLong	30RSol	31RExtDigLong	32RFlexDigLong
1.015	0.011749	0.005798	0.023651	0.003357	-0.046234	0.007935	-0.24963	0.011749	0.028839	0.054932	0.052948	-0.00351	-0.35507	0.080414	0.084381	0.015259	-0.055237	-0.16541	-0.15457	0.012054	0.18158	0.042572	-0.059357	0.059509	0.06134	-0.004272	0.14938	0.00061	-0.038605	-0.13336	0.000458	-0.010376
1.016	0.015411	-0.014648	-0.027466	0.008545	0.053864	0.012512	-0.22751	0.010223	0.012817	0.10925	-0.012817	-0.00412	-0.049896	-0.064697	0.090485	0.011749	-0.067444	-0.14816	0.003052	0.006256	0.23666	-0.053406	-0.008392	-0.019684	0.061798	0.001678	0.43915	0.009918	-0.004883	-0.22034	-0.002441	0.000305
1.017	0.020294	-0.023804	0.10239	0.005341	0.053558	0.0383	-0.2298	0.013733	-0.005188	0.070801	-0.096283	-0.003204	0.010376	-0.08728	0.079041	0.003052	-0.025482	-0.20569	0.30289	0.13443	0.1445	-0.13947	-0.18219	0.005188	0.13107	0.011139	0.56152	0.001984	0.17716	-0.31921	-0.005798	0.000458
1.018	0.011444	-0.027313	0.006104	0.012665	0.046539	0.032043	-0.22781	-0.002136	0.011902	0.077362	-0.014801	-0.003204	0.023956	0.050354	-0.017242	-0.014954	-0.032959	-0.2446	0.12894	0.31021	-0.036316	-0.11078	-0.27664	-0.012207	0.11917	0.014496	0.052948	0.002136	0.18097	-0.32547	-0.002441	-0.004883
1.019	0.014038	-0.003357	-0.015106	0.007172	0.00351	0.036163	-0.22201	-0.005188	0.003967	0.24414	0.00885	-0.003662	0.12512	0.075684	-0.06897	-0.016174	-0.00885	-0.26901	-0.14221	0.22553	-0.032043	-0.084229	-0.21545	-0.041351	0.112	0.005035	-0.54214	0.000916	0.050201	-0.25513	-0.000153	0.001373
1.02	0.013733	0.017242	0.032043	-0.006104	0.001831	0.023651	-0.23331	0.003204	0.003662	0.17044	-0.004425	-0.15259	0.29953	0.079956	-0.13473	-0.063782	0.019684	-0.24826	0.26276	0.11749	-0.03479	-0.041656	-0.14206	-0.18021	0.003052	-0.002136	-0.52856	-0.00473	0.024872	-0.1561	-0.003662	-0.000763
1.021	0.013275	-0.022583	0.081329	-0.000153	-0.00824	0.024719	-0.22354	0.002594	0.02243	-0.27893	-0.014343	0.16617	0.24918	-0.062256	-0.045013	0.017395	0.054932	-0.25497	0.11536	0.059814	-0.018921	-0.028839	-0.26169	-0.18295	-0.094452	0.001678	-0.43716	-0.005951	0.008087	0.001984	-0.002136	-0.007019
1.022	0.013123	0.023041	0.063629	0.006409	-0.014343	0.034943	-0.19394	0.00824	0.039825	-0.31158	-0.002136	0.15427	0.063477	-0.094604	0.032043	0.009308	0.065308	-0.2121	-0.010834	0.01358	-0.006409	-0.0914	-0.49561	0.042725	-0.066071	-0.005341	-0.27786	-0.004425	0.011902	0.066986	-0.003967	-0.015717
1.023	0.019379	0.04837	0.009308	-0.001526	-0.022125	0.04303	-0.19791	-0.002747	0.016174	-0.016785	0.010071	0.005798	-0.20081	0.043793	0.013123	-0.13748	0.093689	-0.16922	0.071106	-0.014801	-0.23666	-0.16327	-0.42816	0.14587	0.13397	0.004272	-0.2005	-0.002747	0.071259	0.037079	-0.010529	-0.014496
1.024	0.024261	0.03479	-0.009003	0.014191	-0.035553	0.054626	-0.21027	0	0.014038	0.22644	-0.003357	-0.10681	0.059509	0.096436	0.002899	0.14374	0.11292	-0.22934	-0.012665	0.052795	-0.26123	-0.17899	-0.11673	0.14313	0.045776	-0.003967	0.10941	0.001678	0.043488	0.13397	-0.003357	-0.011444
1.025	0.03067	0.016327	0.12177	0.00351	0.00412	0.021362	-0.18112	0.006256	0.032196	0.10269	-0.010681	-0.066223	-0.04837	-0.016785	0.003052	0.14069	0.051422	-0.27054	0.10773	0.014801	-0.2829	0.030212	0.003204	0.02655	-0.16663	0.000458	0.45929	-0.001678	0.019226	0.18631	-0.003662	-0.011444
1.026	0.023651	0.047302	0.18341	0.008392	0.018921	-0.078735	-0.1648	0.001526	0.027008	0.022583	0.001984	0.039978	-0.14282	-0.29266	0.01709	-0.084991	0.032806	-0.25101	0.16922	-0.043793	-0.25162	0.091095	0.10819	-0.052795	-0.24124	-0.00473	0.66574	-0.003357	-0.054779	0.19424	-0.003967	-0.016785
1.027	0.02121	0.048218	0.12711	0.007477	0.031891	-0.11765	-0.16068	0.006409	0.031281	0.041351	-0.009003	0.008087	0.32181	-0.21408	0.061035	-0.071564	0.06012	-0.20416	0.14999	-0.031281	0.31525	-0.11002	0.019226	-0.035553	-0.17929	-0.005951	0.52094	-0.000916	-0.087585	0.063019	-0.00885	-0.006104
1.028	0.019226	0.01297	0.13565	0	0.007629	-0.06012	-0.1474	0.009308	0.020142	0.011749	-0.013733	-0.10834	0.06958	-0.06546	0.041809	-0.016785	-0.036163	-0.26764	0.159	0.033722	0.12863	-0.026703	-0.096893	0.10529	0.033875	0.000458	0.06012	0.000458	-0.082703	0.025177	-0.003662	-0.013123
1.029	0.021515	0.038605	0.12466	0.006104	0.005035	-0.064087	-0.15625	0.00885	0.026245	-0.029907	0.010529	-0.036469	-0.034943	-0.088501	-0.10361	-0.005035	-0.089874	-0.25955	0.11337	0.086517	-0.15488	0.15228	-0.17181	0.36713	0.15335	-0.00885	-0.52582	0.000458	-0.04837	0.1033	-0.001678	-0.011139
1.03	0.021362	0.048828	0.12955	0.007935	-0.003052	-0.085754	-0.1355	0.003204	0.022278	-0.17349	0.016632	0.030365	0.00412	-0.044556	-0.087738	-0.006714	-0.072937	-0.23148	0.058289	0.089722	-0.099182	0.10407	-0.17792	0.3537	0.19394	0.000458	-1.019	-0.001831	0.016327	0.045471	-0.004272	-0.008087
1.031	-0.015411	0.010681	0.15869	0.004883	0.007782	-0.094299	-0.13138	-0.003204	0.033112	-0.15472	0.031586	0.066681	-0.28397	-0.17105	0.93353	-0.010376	-0.003357	-0.21957	0.032501	0.059357	0.092621	-0.033417	-0.11169	0.2385	0.14343	0.00412	-0.48386	0.000305	0.044861	-0.030212	-0.001068	-0.003052
1.032	0.034485	0.033112	0.13306	0.007324	0.006104	-0.058594	-0.13153	0.008087	0.027618	-0.15259	0.079193	-0.076904	-0.083923	-0.17807	-0.1712	-0.013885	0.013885	-0.21454	0.039368	-0.01709	-0.26566	-0.021667	-0.18051	0.15152	0.15457	0.004272	-0.30014	0	0.10208	-0.12299	-0.003204	-0.001678
1.033	0.015259	0.039978	0.11612	0.002899	-0.007782	-0.021057	-0.12146	0.001984	0.035706	-0.19516	0.006866	-0.06897	-0.022278	-0.15869	-0.18463	-0.007782	0.019684	-0.18723	-0.095367	-0.12436	-0.21286	-0.019226	-0.2243	0.096741	0.20874	0.003204	-0.32196	0	0.033264	-0.10346	-0.004425	-0.004272
1.034	0.023193	0.025482	0.12512	0.003204	0.005646	-0.026093	-0.13718	0.000916	0.017242	-0.19196	-0.019531	-0.016479	-0.00885	-0.001984	-0.19898	-0.004272	0.044098	-0.20126	-0.12528	-0.097656	-0.1358	0.040131	-0.20065	-0.055847	0.18601	0.001221	-0.29022	0.000153	0.039825	-0.091553	-0.00061	-0.007019
1.035	0.02121	0.017548	0.112	0.006104	0.020142	-0.051727	-0.11276	0.010223	0.02655	-0.12207	-0.029755	0.12329	0.033417	0.072784	-0.21118	-0.002594	0.053406	-0.21957	-0.1857	-0.081787	-0.21179	-0.091705	-0.075989	-0.16739	0.1535	-0.001373	-0.24674	-0.005188	-0.015411	0.032349	-0.00351	-0.000458
1.036	0.024719	0.033722	0.1532	0.011902	0.023193	-0.039215	-0.092468	0.003052	0.028381	0.007324	-0.010529	-0.10788	0.02594	-0.10284	-0.20859	-0.13336	0.06134	-0.16632	-0.093842	0.019073	-0.13657	-0.19486	-0.010681	-0.11261	0.06012	-0.00061	-0.11292	-0.003815	-0.02243	0.052338	-0.000458	0.00412
1.037	0.02121	0.007324	0.15747	0.008392	0.01358	-0.028992	-0.099487	0.014191	0.0177	-0.055389	-0.021667	-0.097504	0.054321	-0.20966	-0.13534	-0.33035	0.006714	-0.091858	-0.059814	0.098114	-0.11169	-0.12512	-0.005035	-0.092163	0.009766	-0.000153	-0.070953	-0.00351	0.088806	0.042114	-0.003204	0.000153
1.038	0.014954	0.007477	0.15259	0.004272	0.011902	0.026855	-0.09964	0.009003	0.028076	0.00885	-0.037537	0.020447	-0.011444	-0.14114	-0.024719	0.73639	-0.048523	-0.059814	0.03952	0.13138	-0.020142	-0.082245	0.017395	-0.006714	0	-0.005188	-0.064392	0.002441	-0.13077	0.068359	-0.00412	-0.007019
1.039	0.013275	0.010376	0.17654	0.005951	0.006104	0.058594	-0.093231	-0.001068	0.031891	0.21103	-0.020905	0.0177	-0.01236	0.007782	0.06424	-0.28168	-0.02182	-0.029602	0.061951	0.071259	-0.098267	-0.10178	0.008698	0.10117	0.094147	-0.002747	0.15869	-0.006409	-0.33859	0.041809	-0.003204	-0.00351
1.04	0.012054	-0.006104	0.15823	-0.005951	-0.010376	0.050049	-0.089111	0.010681	0.032349	0.43671	-0.017548	0.003204	0.056305	-0.046997	0.14084	-0.049744	0.029297	-0.003967	0.006561	0.023041	-0.14999	-0.1358	0.058899	0.083313	0.1384	-0.005035	0.2887	-0.000916	-0.094452	0.067291	-0.00351	-0.010529
1.041	0.00412	0.013733	0.17883	0.00061	-0.015869	0.029602	-0.076752	-0.000458	0.027008	-0.33905	-0.0177	-0.038147	0.20645	-0.11902	0.1001	0.031281	0.052795	-0.10727	-0.034943	0.011749	-0.34714	-0.1857	0.066376	-0.043335	0.25421	0.00061	0.1329	-0.00061	0.82245	0.037231	-0.003815	-0.014954
1.042	0.016785	-0.009003	0.15533	0.003815	-0.039825	0.003967	-0.085449	0.007172	0.038757	-0.33661	-0.001984	-0.04425	0.10773	-0.24826	0.030975	0.18066	0.090637	-0.25528	-0.016937	-0.023193	-0.51819	-0.19791	0.033722	-0.14023	0.31204	0.018616	0.084991	-0.000153	0.24399	0.00946	-0.001373	-0.00946
1.043	0.012512	-0.028381	0.13519	0.002747	-0.039063	0.019073	-0.067902	0.014496	0.019836	0.000153	0.013123	-0.00824	-0.009613	-0.31982	-0.039673	-0.075073	0.045471	-0.29007	-0.1886	-0.000916	-0.090027	-0.2713	-0.028229	-0.11414	0.30823	0.013275	0.074615	-0.007172	-0.30151	-0.023804	-0.001984	-0.006409
1.044	0.018768	0.001221	0.18005	0.007782	-0.018768	-0.019379	-0.045776	0.006714	0.004272	0.32181	0.018921	-0.005798	-0.054626	-0.15411	-0.016174	-0.031433	0.027161	-0.18692	-0.28412	0.032196	0.26382	-0.38757	0.066986	-0.026398	0.1471	0.000916	0.10666	-0.005798	0.41092	-0.021362	-0.003662	-0.006256
